Coordinates
version=1
nRows=35
nColumns=18
inDegrees=yes

Units are S.I. units (second, meters, Newtons, ...)
If the header above contains a line with 'inDegrees', this indicates whether rotational values are in degrees (yes) or radians (no).

endheader
time	ground_thorax_rot_x	ground_thorax_rot_y	ground_thorax_rot_z	ground_thorax_tx	ground_thorax_ty	ground_thorax_tz	clav_prot	clav_elev	scapula_abduction	scapula_elevation	scapula_upward_rot	scapula_winging	plane_elv	shoulder_elv	axial_rot	elbow_flexion	pro_sup
      5.79000000	      4.05410855	     -2.33570710	     -7.68348393	     -0.00547256	      0.00486463	      0.00257127	    -29.91575272	     -3.82788628	    -25.15138343	     -4.12253812	     12.87385355	      4.72436976	     -6.36469434	     35.66936618	     -0.82772252	      0.00000000	     34.32000000
      5.80000000	      3.85745768	     -2.39643237	     -7.65209571	     -0.00555409	      0.00482725	      0.00246570	    -29.84452592	     -4.01980078	    -25.03562787	     -4.23898027	     12.77867344	      4.82763896	     -7.15965383	     34.80534098	      2.46831020	      0.00000000	     34.32000000
      5.81000000	      3.89514703	     -2.46519089	     -7.68460584	     -0.00552489	      0.00469831	      0.00245504	    -29.80090103	     -4.05195582	    -25.08768295	     -4.19914875	     12.54669550	      4.90472241	     -7.31839474	     34.47963997	      2.48331098	      0.00000000	     34.32000000
      5.82000000	      3.80536990	     -2.39910734	     -7.71549988	     -0.00547652	      0.00479590	      0.00223167	    -29.77059637	     -4.27800256	    -25.06160077	     -4.33049854	     12.39755728	      5.02637707	     -8.15571773	     34.11906288	      2.92363514	      0.00000000	     34.32000000
      5.83000000	      3.81636741	     -2.40067167	     -7.72704007	     -0.00537060	      0.00472275	      0.00221699	    -29.74103092	     -4.27303121	    -25.11344103	     -4.27823937	     12.22290926	      5.07329435	     -8.25315805	     33.82576955	      2.96475160	      0.00000000	     34.32000000
      5.84000000	      3.95353949	     -2.40617770	     -7.73308043	     -0.00523660	      0.00479904	      0.00227464	    -29.71745947	     -4.29517854	    -25.13448450	     -4.26261038	     12.10666568	      5.11415603	     -8.29449085	     33.70164484	      2.96503085	      0.00000000	     34.32000000
      5.85000000	      3.90719990	     -2.25417946	     -7.76791934	     -0.00521918	      0.00457864	      0.00224306	    -29.72269256	     -4.32525124	    -25.24604998	     -4.23380662	     11.91069349	      5.17234455	     -8.57729367	     33.35531887	      3.08282977	      0.00000000	     34.32000000
      5.86000000	      4.11054434	     -2.26888902	     -7.77425743	     -0.00508517	      0.00459541	      0.00233279	    -29.69593437	     -4.36415734	    -25.27932699	     -4.22007035	     11.75478801	      5.22943701	     -8.63383510	     33.21047023	      3.08621261	      0.00000000	     34.32000000
      5.87000000	      4.02425944	     -1.72349257	     -7.76716237	     -0.00530175	      0.00469281	      0.00199372	    -29.94735236	     -4.68595166	    -25.78802110	     -4.40015681	     11.43768593	      5.37588949	     -9.46035889	     32.61154205	      6.25603249	      0.00000000	     34.32000000
      5.88000000	      4.24489049	     -1.75796075	     -7.76030333	     -0.00514812	      0.00459830	      0.00202059	    -29.91573466	     -4.73753180	    -25.82354461	     -4.38891299	     11.25662138	      5.44486999	     -9.50906132	     32.43836793	      6.24945765	      0.00000000	     34.32000000
      5.89000000	      4.09557734	     -1.75985175	     -7.84706828	     -0.00505457	      0.00435893	      0.00190324	    -29.89457727	     -4.95687167	    -25.91726501	     -4.46623006	     10.92298413	      5.60980762	     -9.71669229	     32.05919255	      6.34853221	      0.00000000	     34.32000000
      5.90000000	      3.98487413	     -1.77709123	     -7.88304068	     -0.00502765	      0.00440876	      0.00166265	    -29.88847339	     -5.10343816	    -25.97593214	     -4.52670101	     10.73073724	      5.71134430	     -9.95069694	     31.69304137	      6.45204565	      0.00000000	     34.32000000
      5.91000000	      3.85956566	     -1.81603275	     -7.90417314	     -0.00497011	      0.00446657	      0.00148685	    -29.89187240	     -5.15523581	    -26.03773308	     -4.53281622	     10.60495799	      5.76034901	    -10.18762876	     31.29703126	      6.53829979	      0.00000000	     34.32000000
      5.92000000	      3.95653285	     -1.86024842	     -7.93028632	     -0.00489906	      0.00460792	      0.00155667	    -29.88435817	     -5.15523317	    -26.07647532	     -4.50707764	     10.51197842	      5.78427093	    -10.24938266	     31.19605579	      6.54205400	      0.00000000	     34.32000000
      5.93000000	      3.82952036	     -1.64219517	     -7.86361737	     -0.00501872	      0.00467001	      0.00145449	    -29.94930028	     -5.19815345	    -26.02714196	     -4.61634334	     10.77640358	      5.72422666	    -11.72810932	     30.53951560	      7.78341244	      0.00000000	     34.32000000
      5.94000000	      3.85363503	     -1.64310589	     -7.89436606	     -0.00500247	      0.00456688	      0.00154750	    -29.91875687	     -5.14218823	    -26.05330717	     -4.54047772	     10.66330897	      5.73648422	    -11.88678389	     30.27953664	      7.84385188	      0.00000000	     34.32000000
      5.95000000	      3.99302898	     -1.68557890	     -7.91021019	     -0.00495227	      0.00470178	      0.00162044	    -29.90062098	     -5.14954101	    -26.08929993	     -4.51149035	     10.54014917	      5.77238426	    -11.94913843	     30.14623043	      7.84325267	      0.00000000	     34.32000000
      5.96000000	      3.87364880	     -1.68791409	     -7.93067761	     -0.00496224	      0.00441649	      0.00161105	    -29.89229633	     -5.12081840	    -26.12758820	     -4.46667933	     10.45875979	      5.78310044	    -12.42711593	     29.60201844	      7.97036932	      0.00000000	     34.32000000
      5.97000000	      3.86590981	     -1.67353353	     -7.81104312	     -0.00510208	      0.00468561	      0.00156860	    -29.91380197	     -5.23475109	    -25.94275485	     -4.65005739	     10.80625508	      5.73711363	    -14.00924377	     28.76765749	     11.49848573	      0.00000000	     34.32000000
      5.98000000	      3.88074591	     -1.73583884	     -7.82593870	     -0.00507044	      0.00461740	      0.00157130	    -29.89462074	     -5.24790991	    -25.99651408	     -4.61537970	     10.64541687	      5.78437743	    -14.12834552	     28.46727876	     11.49281484	      0.00000000	     34.32000000
      5.99000000	      3.87226399	     -1.73911090	     -7.85751495	     -0.00500573	      0.00455325	      0.00146895	    -29.86503351	     -5.25706491	    -26.03299819	     -4.57717468	     10.48606554	      5.83166819	    -14.25281079	     28.14497673	     11.49333310	      0.00000000	     34.32000000
      6.00000000	      3.81923264	     -1.60810851	     -7.95142737	     -0.00492088	      0.00460067	      0.00132758	    -29.95778516	     -5.41030734	    -26.11403392	     -4.71856571	     10.54740461	      5.85734070	    -14.90026250	     27.67873538	     11.70278113	      0.00000000	     34.32000000
      6.01000000	      3.92427212	     -1.61342719	     -7.94215974	     -0.00484707	      0.00467799	      0.00141315	    -29.93803050	     -5.42543601	    -26.12644941	     -4.70476925	     10.45855799	      5.88801398	    -14.93173801	     27.58617965	     11.70169376	      0.00000000	     34.32000000
      6.02000000	      3.87362072	     -1.38759140	     -7.83774233	     -0.00500097	      0.00468896	      0.00137650	    -30.00350574	     -5.39766796	    -26.18077210	     -4.71788286	     10.56891659	      5.83893330	    -15.86957670	     27.09239560	     13.48969360	      0.00000000	     34.32000000
      6.03000000	      3.96374280	     -1.39432497	     -7.84431149	     -0.00491277	      0.00481587	      0.00143287	    -29.98307877	     -5.40275033	    -26.19487776	     -4.69621573	     10.47971613	      5.86616335	    -15.90106782	     26.99289140	     13.48225532	      0.00000000	     34.32000000
      6.04000000	      3.82440542	     -1.36776267	     -7.87486157	     -0.00488118	      0.00463599	      0.00122530	    -29.93784848	     -5.31381424	    -26.24009918	     -4.57608868	     10.30169122	      5.88409404	    -16.06045664	     26.52848464	     13.46499070	      0.00000000	     34.32000000
      6.05000000	      3.76986601	     -1.41132330	     -7.89991488	     -0.00482849	      0.00461174	      0.00108950	    -29.93803788	     -5.30167383	    -26.31159482	     -4.53283333	     10.17705819	      5.90963352	    -16.29847931	     26.09036018	     13.49466562	      0.00000000	     34.32000000
      6.06000000	      3.91699752	     -1.45770987	     -7.91341935	     -0.00480440	      0.00469151	      0.00109395	    -29.92150873	     -5.31997176	    -26.35062161	     -4.51032131	     10.04698508	      5.95084651	    -16.36790004	     25.94884178	     13.49450846	      0.00000000	     34.32000000
      6.07000000	      3.73859803	     -1.35889628	     -7.85270181	     -0.00489618	      0.00476153	      0.00098600	    -29.97301820	     -5.50118816	    -26.20588303	     -4.74569250	     10.38471343	      5.92799518	    -18.27895283	     25.02228753	     17.03999028	      0.00000000	     34.32000000
      6.08000000	      3.83817286	     -1.35981562	     -7.84320133	     -0.00488341	      0.00485016	      0.00103119	    -29.95053103	     -5.52159019	    -26.21136870	     -4.73622564	     10.29766765	      5.96070376	    -18.30463050	     24.92265823	     17.03228785	      0.00000000	     34.32000000
      6.09000000	      3.73666584	     -1.35679312	     -7.87089536	     -0.00491483	      0.00468462	      0.00098938	    -29.89838659	     -5.50196781	    -26.19217552	     -4.68652534	     10.18412918	      5.98995693	    -18.46204286	     24.60666619	     17.01810198	      0.00000000	     34.32000000
      6.10000000	      3.82676742	     -1.37150551	     -7.86419582	     -0.00492923	      0.00478114	      0.00102128	    -29.88234804	     -5.51985843	    -26.20119985	     -4.67927556	     10.11090822	      6.01719432	    -18.49217340	     24.52605357	     17.01285522	      0.00000000	     34.32000000
      6.11000000	      3.91953088	     -1.38685782	     -7.86080763	     -0.00493512	      0.00478265	      0.00110652	    -29.86446160	     -5.53726266	    -26.21215596	     -4.66909672	     10.02876467	      6.04669010	    -18.52188392	     24.44162665	     17.00713147	      0.00000000	     34.32000000
      6.12000000	      3.99784745	     -1.38819554	     -7.86026057	     -0.00490706	      0.00476575	      0.00118842	    -29.84087604	     -5.55501172	    -26.21618295	     -4.65731930	      9.94151001	      6.07851669	    -18.55230053	     24.34616320	     17.00157184	      0.00000000	     34.32000000
      6.13000000	      3.93395275	     -1.33027125	     -7.90939017	     -0.00487279	      0.00456942	      0.00108401	    -29.78276769	     -5.55125897	    -26.19797127	     -4.61158843	      9.79980615	      6.12143759	    -18.62855404	     24.12416814	     16.99707430	      0.00000000	     34.32000000
